<svg viewBox="0 0 258.274 258.274" xmlns="http://www.w3.org/2000/svg">
<g id="slice:13:2_0:8">
<path d="M129.137,174.392 L174.392,174.392 L174.392,219.647 L129.137,219.647 L129.137,174.392" stroke="none" fill-opacity="0.75" fill="#4DA6FF"/>
<path d="M129.137,174.392 L174.392,174.392 L174.392,219.647 L129.137,219.647 L129.137,174.392" stroke="black" fill="none"/>
</g>
<g id="slice:14:3_0:8">
<path d="M38.6274,174.392 L83.8822,174.392 L83.8822,219.647 L38.6274,219.647 L38.6274,174.392" stroke="none" fill-opacity="0.75" fill="#4DA6FF"/>
<path d="M38.6274,174.392 L83.8822,174.392 L83.8822,219.647 L38.6274,219.647 L38.6274,174.392" stroke="black" fill="none"/>
</g>
<g id="slice:15:4_0:8">
<path d="M174.392,129.137 L219.647,129.137 L219.647,174.392 L174.392,174.392 L174.392,129.137" stroke="none" fill-opacity="0.75" fill="#4DA6FF"/>
<path d="M174.392,129.137 L219.647,129.137 L219.647,174.392 L174.392,174.392 L174.392,129.137" stroke="black" fill="none"/>
</g>
<g id="slice:16:5_0:8">
<path d="M83.8822,129.137 L129.137,129.137 L129.137,174.392 L83.8822,174.392 L83.8822,129.137" stroke="none" fill-opacity="0.75" fill="#4DA6FF"/>
<path d="M83.8822,129.137 L129.137,129.137 L129.137,174.392 L83.8822,174.392 L83.8822,129.137" stroke="black" fill="none"/>
</g>
<g id="slice:19:8_0:8">
<path d="M129.137,83.8822 L174.392,83.8822 L174.392,129.137 L129.137,129.137 L129.137,83.8822" stroke="none" fill-opacity="0.75" fill="#4DA6FF"/>
<path d="M129.137,83.8822 L174.392,83.8822 L174.392,129.137 L129.137,129.137 L129.137,83.8822" stroke="black" fill="none"/>
</g>
<g id="slice:20:9_0:8">
<path d="M38.6274,83.8822 L83.8822,83.8822 L83.8822,129.137 L38.6274,129.137 L38.6274,83.8822" stroke="none" fill-opacity="0.75" fill="#4DA6FF"/>
<path d="M38.6274,83.8822 L83.8822,83.8822 L83.8822,129.137 L38.6274,129.137 L38.6274,83.8822" stroke="black" fill="none"/>
</g>
<g id="slice:21:10_0:8">
<path d="M174.392,38.6274 L219.647,38.6274 L219.647,83.8822 L174.392,83.8822 L174.392,38.6274" stroke="none" fill-opacity="0.75" fill="#4DA6FF"/>
<path d="M174.392,38.6274 L219.647,38.6274 L219.647,83.8822 L174.392,83.8822 L174.392,38.6274" stroke="black" fill="none"/>
</g>
<g id="slice:22:11_0:8">
<path d="M83.8822,38.6274 L129.137,38.6274 L129.137,83.8822 L83.8822,83.8822 L83.8822,38.6274" stroke="none" fill-opacity="0.75" fill="#4DA6FF"/>
<path d="M83.8822,38.6274 L129.137,38.6274 L129.137,83.8822 L83.8822,83.8822 L83.8822,38.6274" stroke="black" fill="none"/>
</g>
<g id="slice:26:3_0:8">
<path d="M174.392,174.392 L219.647,174.392 L219.647,219.647 L174.392,219.647 L174.392,174.392" stroke="none" fill-opacity="0.75" fill="#FF4040"/>
<path d="M174.392,174.392 L219.647,174.392 L219.647,219.647 L174.392,219.647 L174.392,174.392" stroke="black" fill="none"/>
</g>
<g id="slice:27:4_0:8">
<path d="M83.8822,174.392 L129.137,174.392 L129.137,219.647 L83.8822,219.647 L83.8822,174.392" stroke="none" fill-opacity="0.75" fill="#FF4040"/>
<path d="M83.8822,174.392 L129.137,174.392 L129.137,219.647 L83.8822,219.647 L83.8822,174.392" stroke="black" fill="none"/>
</g>
<g id="slice:28:5_0:8">
<path d="M129.137,129.137 L174.392,129.137 L174.392,174.392 L129.137,174.392 L129.137,129.137" stroke="none" fill-opacity="0.75" fill="#FF4040"/>
<path d="M129.137,129.137 L174.392,129.137 L174.392,174.392 L129.137,174.392 L129.137,129.137" stroke="black" fill="none"/>
</g>
<g id="slice:29:6_0:8">
<path d="M38.6274,129.137 L83.8822,129.137 L83.8822,174.392 L38.6274,174.392 L38.6274,129.137" stroke="none" fill-opacity="0.75" fill="#FF4040"/>
<path d="M38.6274,129.137 L83.8822,129.137 L83.8822,174.392 L38.6274,174.392 L38.6274,129.137" stroke="black" fill="none"/>
</g>
<g id="slice:30:7_0:8">
<path d="M174.392,83.8822 L219.647,83.8822 L219.647,129.137 L174.392,129.137 L174.392,83.8822" stroke="none" fill-opacity="0.75" fill="#FF4040"/>
<path d="M174.392,83.8822 L219.647,83.8822 L219.647,129.137 L174.392,129.137 L174.392,83.8822" stroke="black" fill="none"/>
</g>
<g id="slice:31:8_0:8">
<path d="M83.8822,83.8822 L129.137,83.8822 L129.137,129.137 L83.8822,129.137 L83.8822,83.8822" stroke="none" fill-opacity="0.75" fill="#FF4040"/>
<path d="M83.8822,83.8822 L129.137,83.8822 L129.137,129.137 L83.8822,129.137 L83.8822,83.8822" stroke="black" fill="none"/>
</g>
<g id="slice:32:9_0:8">
<path d="M129.137,38.6274 L174.392,38.6274 L174.392,83.8822 L129.137,83.8822 L129.137,38.6274" stroke="none" fill-opacity="0.75" fill="#FF4040"/>
<path d="M129.137,38.6274 L174.392,38.6274 L174.392,83.8822 L129.137,83.8822 L129.137,38.6274" stroke="black" fill="none"/>
</g>
<g id="slice:33:10_0:8">
<path d="M38.6274,38.6274 L83.8822,38.6274 L83.8822,83.8822 L38.6274,83.8822 L38.6274,38.6274" stroke="none" fill-opacity="0.75" fill="#FF4040"/>
<path d="M38.6274,38.6274 L83.8822,38.6274 L83.8822,83.8822 L38.6274,83.8822 L38.6274,38.6274" stroke="black" fill="none"/>
</g>
<g id="slice:12:1_0:8">
<path d="M219.647,174.392 C210.596 187.968, 210.596 206.07, 219.647 219.647 C228.698 206.07, 228.698 187.968, 219.647 174.392" stroke="none" fill="#4DA6FF"/>
<path d="M219.647,174.392 C210.596 187.968, 210.596 206.07, 219.647 219.647 C228.698 206.07, 228.698 187.968, 219.647 174.392" stroke="black" fill="none"/>
</g>
<g id="slice:17:6_0:8">
<path d="M38.6274,129.137 C29.5765 142.714, 29.5765 160.815, 38.6274 174.392 C47.6784 160.815, 47.6784 142.714, 38.6274 129.137" stroke="none" fill="#4DA6FF"/>
<path d="M38.6274,129.137 C29.5765 142.714, 29.5765 160.815, 38.6274 174.392 C47.6784 160.815, 47.6784 142.714, 38.6274 129.137" stroke="black" fill="none"/>
</g>
<g id="slice:18:7_0:8">
<path d="M219.647,83.8822 C210.596 97.4587, 210.596 115.561, 219.647 129.137 C228.698 115.561, 228.698 97.4587, 219.647 83.8822" stroke="none" fill="#4DA6FF"/>
<path d="M219.647,83.8822 C210.596 97.4587, 210.596 115.561, 219.647 129.137 C228.698 115.561, 228.698 97.4587, 219.647 83.8822" stroke="black" fill="none"/>
</g>
<g id="slice:23:12_0:8">
<path d="M38.6274,38.6274 C29.5765 52.2039, 29.5765 70.3058, 38.6274 83.8822 C47.6784 70.3058, 47.6784 52.2039, 38.6274 38.6274" stroke="none" fill="#4DA6FF"/>
<path d="M38.6274,38.6274 C29.5765 52.2039, 29.5765 70.3058, 38.6274 83.8822 C47.6784 70.3058, 47.6784 52.2039, 38.6274 38.6274" stroke="black" fill="none"/>
</g>
<g id="slice:24:1_0:8">
<path d="M129.137,219.647 C142.714 228.698, 160.815 228.698, 174.392 219.647 C160.815 210.596, 142.714 210.596, 129.137 219.647" stroke="none" fill="#FF4040"/>
<path d="M129.137,219.647 C142.714 228.698, 160.815 228.698, 174.392 219.647 C160.815 210.596, 142.714 210.596, 129.137 219.647" stroke="black" fill="none"/>
</g>
<g id="slice:25:2_0:8">
<path d="M38.6274,219.647 C52.2039 228.698, 70.3058 228.698, 83.8822 219.647 C70.3058 210.596, 52.2039 210.596, 38.6274 219.647" stroke="none" fill="#FF4040"/>
<path d="M38.6274,219.647 C52.2039 228.698, 70.3058 228.698, 83.8822 219.647 C70.3058 210.596, 52.2039 210.596, 38.6274 219.647" stroke="black" fill="none"/>
</g>
<g id="slice:34:11_0:8">
<path d="M174.392,38.6274 C187.968 47.6784, 206.07 47.6784, 219.647 38.6274 C206.07 29.5765, 187.968 29.5765, 174.392 38.6274" stroke="none" fill="#FF4040"/>
<path d="M174.392,38.6274 C187.968 47.6784, 206.07 47.6784, 219.647 38.6274 C206.07 29.5765, 187.968 29.5765, 174.392 38.6274" stroke="black" fill="none"/>
</g>
<g id="slice:35:12_0:8">
<path d="M83.8822,38.6274 C97.4587 47.6784, 115.561 47.6784, 129.137 38.6274 C115.561 29.5765, 97.4587 29.5765, 83.8822 38.6274" stroke="none" fill="#FF4040"/>
<path d="M83.8822,38.6274 C97.4587 47.6784, 115.561 47.6784, 129.137 38.6274 C115.561 29.5765, 97.4587 29.5765, 83.8822 38.6274" stroke="black" fill="none"/>
</g>
<g id="qubit_dots">
<circle id="qubit_dot:0:1_1:8" cx="38.6274" cy="38.6274" r="2" stroke="none" fill="black"/>
<circle id="qubit_dot:1:2_1:8" cx="83.8822" cy="38.6274" r="2" stroke="none" fill="black"/>
<circle id="qubit_dot:2:3_1:8" cx="129.137" cy="38.6274" r="2" stroke="none" fill="black"/>
<circle id="qubit_dot:3:4_1:8" cx="174.392" cy="38.6274" r="2" stroke="none" fill="black"/>
<circle id="qubit_dot:4:5_1:8" cx="219.647" cy="38.6274" r="2" stroke="none" fill="black"/>
<circle id="qubit_dot:5:1_2:8" cx="38.6274" cy="83.8822" r="2" stroke="none" fill="black"/>
<circle id="qubit_dot:6:2_2:8" cx="83.8822" cy="83.8822" r="2" stroke="none" fill="black"/>
<circle id="qubit_dot:7:3_2:8" cx="129.137" cy="83.8822" r="2" stroke="none" fill="black"/>
<circle id="qubit_dot:8:4_2:8" cx="174.392" cy="83.8822" r="2" stroke="none" fill="black"/>
<circle id="qubit_dot:9:5_2:8" cx="219.647" cy="83.8822" r="2" stroke="none" fill="black"/>
<circle id="qubit_dot:10:1_3:8" cx="38.6274" cy="129.137" r="2" stroke="none" fill="black"/>
<circle id="qubit_dot:11:2_3:8" cx="83.8822" cy="129.137" r="2" stroke="none" fill="black"/>
<circle id="qubit_dot:12:3_3:8" cx="129.137" cy="129.137" r="2" stroke="none" fill="black"/>
<circle id="qubit_dot:13:4_3:8" cx="174.392" cy="129.137" r="2" stroke="none" fill="black"/>
<circle id="qubit_dot:14:5_3:8" cx="219.647" cy="129.137" r="2" stroke="none" fill="black"/>
<circle id="qubit_dot:15:1_4:8" cx="38.6274" cy="174.392" r="2" stroke="none" fill="black"/>
<circle id="qubit_dot:16:2_4:8" cx="83.8822" cy="174.392" r="2" stroke="none" fill="black"/>
<circle id="qubit_dot:17:3_4:8" cx="129.137" cy="174.392" r="2" stroke="none" fill="black"/>
<circle id="qubit_dot:18:4_4:8" cx="174.392" cy="174.392" r="2" stroke="none" fill="black"/>
<circle id="qubit_dot:19:5_4:8" cx="219.647" cy="174.392" r="2" stroke="none" fill="black"/>
<circle id="qubit_dot:20:1_5:8" cx="38.6274" cy="219.647" r="2" stroke="none" fill="black"/>
<circle id="qubit_dot:21:2_5:8" cx="83.8822" cy="219.647" r="2" stroke="none" fill="black"/>
<circle id="qubit_dot:22:3_5:8" cx="129.137" cy="219.647" r="2" stroke="none" fill="black"/>
<circle id="qubit_dot:23:4_5:8" cx="174.392" cy="219.647" r="2" stroke="none" fill="black"/>
<circle id="qubit_dot:24:5_5:8" cx="219.647" cy="219.647" r="2" stroke="none" fill="black"/>
<circle id="qubit_dot:25:2.5_0.5:8" cx="106.51" cy="16" r="2" stroke="none" fill="black"/>
<circle id="qubit_dot:26:4.5_0.5:8" cx="197.019" cy="16" r="2" stroke="none" fill="black"/>
<circle id="qubit_dot:27:1.5_1.5:8" cx="61.2548" cy="61.2548" r="2" stroke="none" fill="black"/>
<circle id="qubit_dot:28:3.5_1.5:8" cx="151.765" cy="61.2548" r="2" stroke="none" fill="black"/>
<circle id="qubit_dot:29:2.5_2.5:8" cx="106.51" cy="106.51" r="2" stroke="none" fill="black"/>
<circle id="qubit_dot:30:4.5_2.5:8" cx="197.019" cy="106.51" r="2" stroke="none" fill="black"/>
<circle id="qubit_dot:31:1.5_3.5:8" cx="61.2548" cy="151.765" r="2" stroke="none" fill="black"/>
<circle id="qubit_dot:32:3.5_3.5:8" cx="151.765" cy="151.765" r="2" stroke="none" fill="black"/>
<circle id="qubit_dot:33:2.5_4.5:8" cx="106.51" cy="197.019" r="2" stroke="none" fill="black"/>
<circle id="qubit_dot:34:4.5_4.5:8" cx="197.019" cy="197.019" r="2" stroke="none" fill="black"/>
<circle id="qubit_dot:35:1.5_5.5:8" cx="61.2548" cy="242.274" r="2" stroke="none" fill="black"/>
<circle id="qubit_dot:36:3.5_5.5:8" cx="151.765" cy="242.274" r="2" stroke="none" fill="black"/>
<circle id="qubit_dot:37:0.5_1.5:8" cx="16" cy="61.2548" r="2" stroke="none" fill="black"/>
<circle id="qubit_dot:38:2.5_1.5:8" cx="106.51" cy="61.2548" r="2" stroke="none" fill="black"/>
<circle id="qubit_dot:39:4.5_1.5:8" cx="197.019" cy="61.2548" r="2" stroke="none" fill="black"/>
<circle id="qubit_dot:40:1.5_2.5:8" cx="61.2548" cy="106.51" r="2" stroke="none" fill="black"/>
<circle id="qubit_dot:41:3.5_2.5:8" cx="151.765" cy="106.51" r="2" stroke="none" fill="black"/>
<circle id="qubit_dot:42:5.5_2.5:8" cx="242.274" cy="106.51" r="2" stroke="none" fill="black"/>
<circle id="qubit_dot:43:0.5_3.5:8" cx="16" cy="151.765" r="2" stroke="none" fill="black"/>
<circle id="qubit_dot:44:2.5_3.5:8" cx="106.51" cy="151.765" r="2" stroke="none" fill="black"/>
<circle id="qubit_dot:45:4.5_3.5:8" cx="197.019" cy="151.765" r="2" stroke="none" fill="black"/>
<circle id="qubit_dot:46:1.5_4.5:8" cx="61.2548" cy="197.019" r="2" stroke="none" fill="black"/>
<circle id="qubit_dot:47:3.5_4.5:8" cx="151.765" cy="197.019" r="2" stroke="none" fill="black"/>
<circle id="qubit_dot:48:5.5_4.5:8" cx="242.274" cy="197.019" r="2" stroke="none" fill="black"/>
</g>
</svg>